<svg width="1110" height="464" viewBox="0 0 1110 464" fill="none" xmlns="http://www.w3.org/2000/svg">
<rect width="1110" height="464" rx="20" fill="#58BEBF"/>
<mask id="mask0_2370_2" style="mask-type:alpha" maskUnits="userSpaceOnUse" x="0" y="-1" width="1110" height="464">
<rect y="-1" width="1110" height="464" rx="20" fill="white"/>
</mask>
<g mask="url(#mask0_2370_2)">
<path fill-rule="evenodd" clip-rule="evenodd" d="M1037 49L1037.06 -36C1083.67 -35.9654 1122 2.39425 1122 49C1122 95.6298 1083.63 134 1037 134C990.37 134 952 95.6298 952 49H1037Z" fill="url(#paint0_linear_2370_2)"/>
<circle cx="1037" cy="49" r="152" fill="url(#paint1_linear_2370_2)"/>
<circle cx="521" cy="515" r="151" transform="rotate(-180 521 515)" fill="url(#paint2_linear_2370_2)" stroke="url(#paint3_linear_2370_2)" stroke-width="2"/>
</g>
<defs>
<linearGradient id="paint0_linear_2370_2" x1="1056.52" y1="-37.1799" x2="1172.3" y2="84.0571" gradientUnits="userSpaceOnUse">
<stop stop-color="white" stop-opacity="0.502759"/>
<stop offset="1" stop-color="white" stop-opacity="0.01"/>
</linearGradient>
<linearGradient id="paint1_linear_2370_2" x1="1002.08" y1="-105.11" x2="795.049" y2="111.69" gradientUnits="userSpaceOnUse">
<stop stop-color="white" stop-opacity="0.01"/>
<stop offset="1" stop-color="white" stop-opacity="0.502759"/>
</linearGradient>
<linearGradient id="paint2_linear_2370_2" x1="486.085" y1="360.89" x2="279.049" y2="577.69" gradientUnits="userSpaceOnUse">
<stop stop-color="white" stop-opacity="0.01"/>
<stop offset="1" stop-color="white" stop-opacity="0.502759"/>
</linearGradient>
<linearGradient id="paint3_linear_2370_2" x1="550.84" y1="255.339" x2="216.159" y2="499.66" gradientUnits="userSpaceOnUse">
<stop stop-color="white" stop-opacity="0.527289"/>
<stop offset="1" stop-color="white" stop-opacity="0.01"/>
</linearGradient>
</defs>
</svg>
